# xmcd
#
# Track frame offsets: 
#        150
#        20786
#        38774
#        57080
#        76046
#        94354
#        114328
#        135541
#        156755
#        175325
#        192557
#
# Disc length: 2794 seconds
#
# Revision: 1
# Processed by: cddbd v1.5.2PL0 Copyright (c) Steve Scherf et al.
# Submitted via: ExactAudioCopy v1.3
#
DISCID=8b0ae80b
DTITLE=蔡淳佳 - 慶幸擁有蔡淳佳
DYEAR=2007
DGENRE=
TTITLE0=慶幸有你愛我
TTITLE1=Yesterday
TTITLE2=約好的以後
TTITLE3=倒愛
TTITLE4=好好愛她
TTITLE5=女人們的咖啡_蔡淳佳.金梅心
TTITLE6=相遇
TTITLE7=一刻曖昧
TTITLE8=眼裡眉間
TTITLE9=依戀
TTITLE10=我的好人_Featuring Jim Brickman
EXTD=
EXTT0=
EXTT1=
EXTT2=
EXTT3=
EXTT4=
EXTT5=
EXTT6=
EXTT7=
EXTT8=
EXTT9=
EXTT10=
PLAYORDER=
